<?xml version="1.0" encoding="UTF-8" standalone="no"?>
<svg xmlns="http://www.w3.org/2000/svg" xmlns:xlink="http://www.w3.org/1999/xlink" contentScriptType="application/ecmascript" contentStyleType="text/css" height="1665.625px" preserveAspectRatio="none" style="width:3084px;height:1665px;" version="1.1" viewBox="0 0 3084 1665" width="3084.375px" zoomAndPan="magnify"><defs><filter height="300%" id="fxpwttunw99id" width="300%" x="-1" y="-1"><feGaussianBlur result="blurOut" stdDeviation="6.25"/><feColorMatrix in="blurOut" result="blurOut2" type="matrix" values="0 0 0 0 0 0 0 0 0 0 0 0 0 0 0 0 0 0 .4 0"/><feOffset dx="12.5" dy="12.5" in="blurOut2" result="blurOut3"/><feBlend in="SourceGraphic" in2="blurOut3" mode="normal"/></filter></defs><g><text fill="#000000" font-family="sans-serif" font-size="56.25" lengthAdjust="spacingAndGlyphs" textLength="478.125" x="62.5" y="92.041">Content Delivery</text><line style="stroke: #000000; stroke-width: 6.25;" x1="31.25" x2="31.25" y1="39.8285" y2="1629.7211"/><ellipse cx="303.125" cy="136.557" fill="#000000" filter="url(#fxpwttunw99id)" rx="31.25" ry="31.25" style="stroke: none; stroke-width: 3.125;"/><rect fill="#FEFECE" filter="url(#fxpwttunw99id)" height="106.1523" rx="39.0625" ry="39.0625" style="stroke: #A80036; stroke-width: 4.6875;" width="275" x="165.625" y="230.307"/><text fill="#000000" font-family="sans-serif" font-size="37.5" lengthAdjust="spacingAndGlyphs" textLength="212.5" x="196.875" y="296.3654">CloudFront</text><text fill="#000000" font-family="sans-serif" font-size="56.25" lengthAdjust="spacingAndGlyphs" textLength="265.625" x="845.3125" y="92.041">API Layer</text><line style="stroke: #000000; stroke-width: 6.25;" x1="571.875" x2="571.875" y1="39.8285" y2="1629.7211"/><rect fill="#000000" filter="url(#fxpwttunw99id)" height="18.75" rx="7.8125" ry="7.8125" style="stroke: #000000; stroke-width: 3.125;" width="587.5" x="603.125" y="398.9594"/><rect fill="#FEFECE" filter="url(#fxpwttunw99id)" height="106.1523" rx="39.0625" ry="39.0625" style="stroke: #A80036; stroke-width: 4.6875;" width="300" x="646.875" y="480.2094"/><text fill="#000000" font-family="sans-serif" font-size="37.5" lengthAdjust="spacingAndGlyphs" textLength="237.5" x="678.125" y="546.2677">Api Gateway</text><rect fill="#FEFECE" filter="url(#fxpwttunw99id)" height="106.1523" rx="39.0625" ry="39.0625" style="stroke: #A80036; stroke-width: 4.6875;" width="112.5" x="1034.375" y="480.2094"/><text fill="#000000" font-family="sans-serif" font-size="37.5" lengthAdjust="spacingAndGlyphs" textLength="50" x="1065.625" y="546.2677">S3</text><rect fill="#000000" filter="url(#fxpwttunw99id)" height="18.75" rx="7.8125" ry="7.8125" style="stroke: #000000; stroke-width: 3.125;" width="587.5" x="603.125" y="648.8617"/><text fill="#000000" font-family="sans-serif" font-size="56.25" lengthAdjust="spacingAndGlyphs" textLength="462.5" x="1471.875" y="92.041">Application layer</text><line style="stroke: #000000; stroke-width: 6.25;" x1="1384.375" x2="1384.375" y1="39.8285" y2="1629.7211"/><rect fill="#FEFECE" filter="url(#fxpwttunw99id)" height="106.1523" rx="39.0625" ry="39.0625" style="stroke: #A80036; stroke-width: 4.6875;" width="578.125" x="1415.625" y="730.1117"/><text fill="#000000" font-family="sans-serif" font-size="37.5" lengthAdjust="spacingAndGlyphs" textLength="515.625" x="1446.875" y="796.17">Application load balancing</text><rect fill="#FEFECE" filter="url(#fxpwttunw99id)" height="106.1523" style="stroke: #A80036; stroke-width: 4.6875;" width="215.625" x="1596.875" y="898.764"/><line style="stroke: #A80036; stroke-width: 4.6875;" x1="1612.5" x2="1612.5" y1="898.764" y2="1004.9164"/><line style="stroke: #A80036; stroke-width: 4.6875;" x1="1796.875" x2="1796.875" y1="898.764" y2="1004.9164"/><text fill="#000000" font-family="sans-serif" font-size="37.5" lengthAdjust="spacingAndGlyphs" textLength="153.125" x="1628.125" y="964.8224">Lambda</text><rect fill="#FEFECE" filter="url(#fxpwttunw99id)" height="106.1523" rx="39.0625" ry="39.0625" style="stroke: #A80036; stroke-width: 4.6875;" width="493.75" x="1457.8125" y="1067.4164"/><text fill="#000000" font-family="sans-serif" font-size="37.5" lengthAdjust="spacingAndGlyphs" textLength="431.25" x="1489.0625" y="1133.4747">EC2 Container Service</text><text fill="#000000" font-family="sans-serif" font-size="56.25" lengthAdjust="spacingAndGlyphs" textLength="487.5" x="2290.625" y="92.041">Persistency Layer</text><line style="stroke: #000000; stroke-width: 6.25;" x1="2021.875" x2="2021.875" y1="39.8285" y2="1629.7211"/><rect fill="#000000" filter="url(#fxpwttunw99id)" height="18.75" rx="7.8125" ry="7.8125" style="stroke: #000000; stroke-width: 3.125;" width="965.625" x="2053.125" y="1236.0687"/><rect fill="#FEFECE" filter="url(#fxpwttunw99id)" height="106.1523" rx="39.0625" ry="39.0625" style="stroke: #A80036; stroke-width: 4.6875;" width="290.625" x="2096.875" y="1317.3187"/><text fill="#000000" font-family="sans-serif" font-size="37.5" lengthAdjust="spacingAndGlyphs" textLength="228.125" x="2128.125" y="1383.3771">ElastiCache</text><rect fill="#FEFECE" filter="url(#fxpwttunw99id)" height="106.1523" rx="39.0625" ry="39.0625" style="stroke: #A80036; stroke-width: 4.6875;" width="140.625" x="2475" y="1317.3187"/><text fill="#000000" font-family="sans-serif" font-size="37.5" lengthAdjust="spacingAndGlyphs" textLength="78.125" x="2506.25" y="1383.3771">RDS</text><rect fill="#FEFECE" filter="url(#fxpwttunw99id)" height="106.1523" rx="39.0625" ry="39.0625" style="stroke: #A80036; stroke-width: 4.6875;" width="271.875" x="2703.125" y="1317.3187"/><text fill="#000000" font-family="sans-serif" font-size="37.5" lengthAdjust="spacingAndGlyphs" textLength="209.375" x="2734.375" y="1383.3771">DynamoDB</text><rect fill="#000000" filter="url(#fxpwttunw99id)" height="18.75" rx="7.8125" ry="7.8125" style="stroke: #000000; stroke-width: 3.125;" width="965.625" x="2053.125" y="1485.9711"/><ellipse cx="2535.9375" cy="1598.4711" fill="none" filter="url(#fxpwttunw99id)" rx="31.25" ry="31.25" style="stroke: #000000; stroke-width: 3.125;"/><ellipse cx="2537.5" cy="1600.0336" fill="#000000" filter="url(#fxpwttunw99id)" rx="18.75" ry="18.75" style="stroke: none; stroke-width: 3.125;"/><line style="stroke: #000000; stroke-width: 6.25;" x1="3046.875" x2="3046.875" y1="39.8285" y2="1629.7211"/><line style="stroke: #A80036; stroke-width: 4.6875;" x1="303.125" x2="303.125" y1="167.807" y2="230.307"/><polygon fill="#A80036" points="290.625,199.057,303.125,230.307,315.625,199.057,303.125,211.557" style="stroke: #A80036; stroke-width: 3.125;"/><line style="stroke: #A80036; stroke-width: 4.6875;" x1="796.875" x2="796.875" y1="417.7094" y2="480.2094"/><polygon fill="#A80036" points="784.375,448.9594,796.875,480.2094,809.375,448.9594,796.875,461.4594" style="stroke: #A80036; stroke-width: 3.125;"/><line style="stroke: #000000; stroke-width: 4.6875; stroke-dasharray: 1.0,3.0;" x1="1090.625" x2="1090.625" y1="417.7094" y2="480.2094"/><polygon fill="#000000" points="1078.125,448.9594,1090.625,480.2094,1103.125,448.9594,1090.625,461.4594" style="stroke: #000000; stroke-width: 3.125;"/><text fill="#000000" font-family="sans-serif" font-size="34.375" lengthAdjust="spacingAndGlyphs" textLength="250" x="1103.125" y="460.8597">Static Content</text><line style="stroke: #A80036; stroke-width: 4.6875;" x1="796.875" x2="796.875" y1="586.3617" y2="648.8617"/><polygon fill="#A80036" points="784.375,617.6117,796.875,648.8617,809.375,617.6117,796.875,630.1117" style="stroke: #A80036; stroke-width: 3.125;"/><line style="stroke: #A80036; stroke-width: 4.6875;" x1="1704.6875" x2="1704.6875" y1="836.264" y2="898.764"/><polygon fill="#A80036" points="1692.1875,867.514,1704.6875,898.764,1717.1875,867.514,1704.6875,880.014" style="stroke: #A80036; stroke-width: 3.125;"/><line style="stroke: #A80036; stroke-width: 4.6875;" x1="1704.6875" x2="1704.6875" y1="1004.9164" y2="1067.4164"/><polygon fill="#A80036" points="1692.1875,1036.1664,1704.6875,1067.4164,1717.1875,1036.1664,1704.6875,1048.6664" style="stroke: #A80036; stroke-width: 3.125;"/><line style="stroke: #A80036; stroke-width: 4.6875;" x1="2242.1875" x2="2242.1875" y1="1254.8187" y2="1317.3187"/><polygon fill="#A80036" points="2229.6875,1286.0687,2242.1875,1317.3187,2254.6875,1286.0687,2242.1875,1298.5687" style="stroke: #A80036; stroke-width: 3.125;"/><line style="stroke: #A80036; stroke-width: 4.6875;" x1="2545.3125" x2="2545.3125" y1="1254.8187" y2="1317.3187"/><polygon fill="#A80036" points="2532.8125,1286.0687,2545.3125,1317.3187,2557.8125,1286.0687,2545.3125,1298.5687" style="stroke: #A80036; stroke-width: 3.125;"/><line style="stroke: #A80036; stroke-width: 4.6875;" x1="2839.0625" x2="2839.0625" y1="1254.8187" y2="1317.3187"/><polygon fill="#A80036" points="2826.5625,1286.0687,2839.0625,1317.3187,2851.5625,1286.0687,2839.0625,1298.5687" style="stroke: #A80036; stroke-width: 3.125;"/><line style="stroke: #A80036; stroke-width: 4.6875;" x1="2242.1875" x2="2242.1875" y1="1423.4711" y2="1485.9711"/><polygon fill="#A80036" points="2229.6875,1454.7211,2242.1875,1485.9711,2254.6875,1454.7211,2242.1875,1467.2211" style="stroke: #A80036; stroke-width: 3.125;"/><line style="stroke: #A80036; stroke-width: 4.6875;" x1="2545.3125" x2="2545.3125" y1="1423.4711" y2="1485.9711"/><polygon fill="#A80036" points="2532.8125,1454.7211,2545.3125,1485.9711,2557.8125,1454.7211,2545.3125,1467.2211" style="stroke: #A80036; stroke-width: 3.125;"/><line style="stroke: #A80036; stroke-width: 4.6875;" x1="2839.0625" x2="2839.0625" y1="1423.4711" y2="1485.9711"/><polygon fill="#A80036" points="2826.5625,1454.7211,2839.0625,1485.9711,2851.5625,1454.7211,2839.0625,1467.2211" style="stroke: #A80036; stroke-width: 3.125;"/><line style="stroke: #A80036; stroke-width: 4.6875;" x1="2535.9375" x2="2535.9375" y1="1504.7211" y2="1567.2211"/><polygon fill="#A80036" points="2523.4375,1535.9711,2535.9375,1567.2211,2548.4375,1535.9711,2535.9375,1548.4711" style="stroke: #A80036; stroke-width: 3.125;"/><line style="stroke: #A80036; stroke-width: 4.6875;" x1="303.125" x2="303.125" y1="336.4594" y2="352.0844"/><line style="stroke: #A80036; stroke-width: 4.6875;" x1="303.125" x2="896.875" y1="352.0844" y2="352.0844"/><line style="stroke: #A80036; stroke-width: 4.6875;" x1="896.875" x2="896.875" y1="352.0844" y2="398.9594"/><polygon fill="#A80036" points="884.375,367.7094,896.875,398.9594,909.375,367.7094,896.875,380.2094" style="stroke: #A80036; stroke-width: 3.125;"/><line style="stroke: #A80036; stroke-width: 4.6875;" x1="896.875" x2="896.875" y1="667.6117" y2="683.2367"/><line style="stroke: #A80036; stroke-width: 4.6875;" x1="896.875" x2="1704.6875" y1="683.2367" y2="683.2367"/><line style="stroke: #A80036; stroke-width: 4.6875;" x1="1704.6875" x2="1704.6875" y1="683.2367" y2="730.1117"/><polygon fill="#A80036" points="1692.1875,698.8617,1704.6875,730.1117,1717.1875,698.8617,1704.6875,711.3617" style="stroke: #A80036; stroke-width: 3.125;"/><line style="stroke: #A80036; stroke-width: 4.6875;" x1="1704.6875" x2="1704.6875" y1="1173.5687" y2="1189.1937"/><line style="stroke: #A80036; stroke-width: 4.6875;" x1="1704.6875" x2="2535.9375" y1="1189.1937" y2="1189.1937"/><line style="stroke: #A80036; stroke-width: 4.6875;" x1="2535.9375" x2="2535.9375" y1="1189.1937" y2="1236.0687"/><polygon fill="#A80036" points="2523.4375,1204.8187,2535.9375,1236.0687,2548.4375,1204.8187,2535.9375,1217.3187" style="stroke: #A80036; stroke-width: 3.125;"/><!--
@startuml
skinparam dpi 300

|Content Delivery|
start
:CloudFront;
fork
|API Layer|

:Api Gateway;

fork again
-[#black,dotted]->
->Static Content;
:S3;
detach
end fork
|Application layer|
:Application load balancing;
:Lambda|
:EC2 Container Service;
|Persistency Layer|
fork
:ElastiCache;
fork again
:RDS;
fork again
:DynamoDB;
end fork
stop
@enduml

PlantUML version 1.2018.07beta8(Unknown compile time)
(GPL source distribution)
Java Runtime: Java(TM) SE Runtime Environment
JVM: Java HotSpot(TM) 64-Bit Server VM
Java Version: 1.7.0_25-b15
Operating System: Linux
Default Encoding: UTF-8
Language: en
Country: US
--></g></svg>