<?xml version="1.0" encoding="UTF-8" standalone="no"?>
<svg xmlns="http://www.w3.org/2000/svg" xmlns:xlink="http://www.w3.org/1999/xlink" contentScriptType="application/ecmascript" contentStyleType="text/css" height="315px" preserveAspectRatio="none" style="width:618px;height:315px;" version="1.1" viewBox="0 0 618 315" width="618px" zoomAndPan="magnify"><defs><filter height="300%" id="fn8cbdyfrjcbe" width="300%" x="-1" y="-1"><feGaussianBlur result="blurOut" stdDeviation="2.0"/><feColorMatrix in="blurOut" result="blurOut2" type="matrix" values="0 0 0 0 0 0 0 0 0 0 0 0 0 0 0 0 0 0 .4 0"/><feOffset dx="4.0" dy="4.0" in="blurOut2" result="blurOut3"/><feBlend in="SourceGraphic" in2="blurOut3" mode="normal"/></filter></defs><g><!--cluster Auto Scaling Group--><rect fill="#FFFFFF" filter="url(#fn8cbdyfrjcbe)" height="280" style="stroke: #000000; stroke-width: 1.5;" width="170" x="295" y="24"/><text fill="#000000" font-family="sans-serif" font-size="14" font-weight="bold" lengthAdjust="spacingAndGlyphs" textLength="152" x="304" y="38.9951">Auto Scaling Group</text><ellipse cx="379.8762" cy="273.0236" fill="#FEFECE" filter="url(#fn8cbdyfrjcbe)" rx="50.3762" ry="14.5236" style="stroke: #A80036; stroke-width: 1.5;"/><text fill="#000000" font-family="sans-serif" font-size="14" lengthAdjust="spacingAndGlyphs" textLength="67" x="346.3762" y="277.6721">Lambda 1</text><ellipse cx="379.8762" cy="74.0236" fill="#FEFECE" filter="url(#fn8cbdyfrjcbe)" rx="50.3762" ry="14.5236" style="stroke: #A80036; stroke-width: 1.5;"/><text fill="#000000" font-family="sans-serif" font-size="14" lengthAdjust="spacingAndGlyphs" textLength="67" x="346.3762" y="78.6721">Lambda n</text><ellipse cx="380.06" cy="207.212" fill="#FEFECE" filter="url(#fn8cbdyfrjcbe)" rx="69.06" ry="16.212" style="stroke: #A80036; stroke-width: 1.5;"/><text fill="#000000" font-family="sans-serif" font-size="14" lengthAdjust="spacingAndGlyphs" textLength="104" x="328.06" y="211.8604">EC2 instance 1</text><ellipse cx="380.06" cy="140.212" fill="#FEFECE" filter="url(#fn8cbdyfrjcbe)" rx="69.06" ry="16.212" style="stroke: #A80036; stroke-width: 1.5;"/><text fill="#000000" font-family="sans-serif" font-size="14" lengthAdjust="spacingAndGlyphs" textLength="104" x="328.06" y="144.8604">EC2 instance n</text><!--entity Clients--><ellipse cx="29.5" cy="122.5" fill="#FEFECE" filter="url(#fn8cbdyfrjcbe)" rx="8" ry="8" style="stroke: #A80036; stroke-width: 2.0;"/><path d="M29.5,130.5 L29.5,157.5 M16.5,138.5 L42.5,138.5 M29.5,157.5 L16.5,172.5 M29.5,157.5 L42.5,172.5 " fill="none" filter="url(#fn8cbdyfrjcbe)" style="stroke: #A80036; stroke-width: 2.0;"/><text fill="#000000" font-family="sans-serif" font-size="14" lengthAdjust="spacingAndGlyphs" textLength="47" x="6" y="192.4951">Clients</text><!--entity EL--><rect fill="#FEFECE" filter="url(#fn8cbdyfrjcbe)" height="36.2969" style="stroke: #A80036; stroke-width: 1.5;" width="101" x="147" y="136"/><rect fill="#FEFECE" height="5" style="stroke: #A80036; stroke-width: 1.5;" width="10" x="142" y="141"/><rect fill="#FEFECE" height="5" style="stroke: #A80036; stroke-width: 1.5;" width="10" x="142" y="162.2969"/><text fill="#000000" font-family="sans-serif" font-size="14" lengthAdjust="spacingAndGlyphs" textLength="81" x="157" y="158.9951">Elastic Load</text><!--entity db--><path d="M512,158.5 C512,148.5 559,148.5 559,148.5 C559,148.5 606,148.5 606,158.5 L606,183.7969 C606,193.7969 559,193.7969 559,193.7969 C559,193.7969 512,193.7969 512,183.7969 L512,158.5 " fill="#FEFECE" filter="url(#fn8cbdyfrjcbe)" style="stroke: #000000; stroke-width: 1.5;"/><path d="M512,158.5 C512,168.5 559,168.5 559,168.5 C559,168.5 606,168.5 606,158.5 " fill="none" style="stroke: #000000; stroke-width: 1.5;"/><text fill="#000000" font-family="sans-serif" font-size="14" lengthAdjust="spacingAndGlyphs" textLength="74" x="522" y="185.4951">Repository</text><!--link Clients to EL--><path d="M53.2335,154 C75.8972,154 111.568,154 141.645,154 " fill="none" id="Clients-EL" style="stroke: #A80036; stroke-width: 1.0;"/><polygon fill="#A80036" points="146.805,154,137.805,150,141.805,154,137.805,158,146.805,154" style="stroke: #A80036; stroke-width: 1.0;"/><text fill="#000000" font-family="sans-serif" font-size="13" lengthAdjust="spacingAndGlyphs" textLength="32" x="84" y="150.0669">REST</text><!--link EL to Lambda 1--><path d="M212.65,172.054 C228.766,191.523 256.801,222.2432 287,241 C301.841,250.218 319.687,257.2076 335.696,262.266 " fill="none" id="EL-Lambda 1" style="stroke: #A80036; stroke-width: 1.0;"/><polygon fill="#A80036" points="340.599,263.7742,333.1727,257.305,335.82,262.3042,330.8208,264.9515,340.599,263.7742" style="stroke: #A80036; stroke-width: 1.0;"/><!--link EL to Lambda n--><path d="M229.01,135.859 C245.79,126.291 267.173,114.756 287,106 C303.963,98.509 323.274,91.564 339.81,86.072 " fill="none" id="EL-Lambda n" style="stroke: #A80036; stroke-width: 1.0;"/><polygon fill="#A80036" points="344.846,84.415,335.0467,83.4282,340.0965,85.9777,337.547,91.0275,344.846,84.415" style="stroke: #A80036; stroke-width: 1.0;"/><!--link Lambda 1 to EC2 instance 1--><path d="M380,258.3047 C380,246.5474 380,234.79 380,223.0327 " fill="none" id="Lambda 1-EC2 instance 1" style="stroke: #A80036; stroke-width: 1.0;"/><!--link EC2 instance 1 to EC2 instance n--><path d="M380,190.773 C380,179.27 380,167.767 380,156.263 " fill="none" id="EC2 instance 1-EC2 instance n" style="stroke: #A80036; stroke-width: 1.0; stroke-dasharray: 7.0,7.0;"/><!--link EC2 instance n to Lambda n--><path d="M380,123.758 C380,112.096 380,100.434 380,88.772 " fill="none" id="EC2 instance n-Lambda n" style="stroke: #A80036; stroke-width: 1.0;"/><!--link EC2 instance n to db--><path d="M435.55,149.554 C458.309,153.54 484.598,158.144 506.969,162.062 " fill="none" id="EC2 instance n-db" style="stroke: #A80036; stroke-width: 1.0;"/><polygon fill="#A80036" points="511.975,162.939,503.7989,157.448,507.0498,162.0774,502.4204,165.3283,511.975,162.939" style="stroke: #A80036; stroke-width: 1.0;"/><!--link EC2 instance 1 to db--><path d="M432.672,196.491 C456.106,191.724 483.734,186.105 507.078,181.357 " fill="none" id="EC2 instance 1-db" style="stroke: #A80036; stroke-width: 1.0;"/><polygon fill="#A80036" points="511.992,180.358,502.3751,178.233,507.0924,181.3551,503.9704,186.0724,511.992,180.358" style="stroke: #A80036; stroke-width: 1.0;"/><!--
@startuml
skinparam backgroundColor transparent
left to right direction
actor Clients

component [Elastic Load] as EL
database Repository as db


Clients - -> EL : REST

rectangle "Auto Scaling Group" {
  EL - -> (Lambda 1)
  EL - -> (Lambda n)
  (Lambda 1) - (EC2 instance 1)
  (EC2 instance 1) . (EC2 instance n)
  (EC2 instance n) - (Lambda n)
  (EC2 instance n) - -> db
  (EC2 instance 1) - -> db
}
@enduml

PlantUML version 1.2018.07beta8(Unknown compile time)
(GPL source distribution)
Java Runtime: Java(TM) SE Runtime Environment
JVM: Java HotSpot(TM) 64-Bit Server VM
Java Version: 1.7.0_25-b15
Operating System: Linux
Default Encoding: UTF-8
Language: en
Country: US
--></g></svg>